<svg xmlns="http://www.w3.org/2000/svg" width="24" height="24" viewBox="0 0 24 24" fill="none" stroke="currentColor" stroke-width="2" stroke-linecap="round" stroke-linejoin="round">
  <path d="M 12.73664,2 H 11.608843 C 10.504274,2 9.6088431,2.8954305 9.6088431,4 v 0.9977496 c -7.321e-4,0.7137984 -0.3818319,1.373101 -1,1.73 l -0.43,0.25 c -0.6188022,0.3572656 -1.3811978,0.3572656 -2,0 l -0.15,-0.08 c -0.9555913,-0.551234 -2.1770707,-0.2246113 -2.73,0.73 l -0.22,0.38 c -0.551234,0.9555913 -0.2246113,2.1770704 0.73,2.7300004 l 0.15,0.1 c 0.3572656,0.618802 0.3572656,1.381198 0,2 l -0.15,0.08 c -0.9546113,0.552929 -1.281234,1.774409 -0.73,2.73 l 0.22,0.38 c 0.5529293,0.954611 1.7744087,1.281234 2.73,0.73 l 0.15,-0.08 c 0.6188022,-0.357266 1.3811978,-0.357266 2,0 l 0.43,0.25 c 0.6181681,0.356899 0.9992679,1.016202 1,1.73 V 20 c 0,1.104569 0.8954309,2 1.9999999,2 h 1.127797 c 1.104569,0 2,-0.895431 2,-2 v -1.36225 c 7.32e-4,-0.713798 0.381832,-1.373101 1,-1.73 l 0.43,-0.25 c 0.618802,-0.357266 1.381198,-0.357266 2,0 l 0.15,0.08 c 0.955591,0.551234 2.177071,0.224611 2.73,-0.73 l 0.22,-0.38 c 0.551234,-0.955591 0.224611,-2.177071 -0.73,-2.73 l -0.15,-0.08 c -0.357266,-0.618802 -0.357266,-1.381198 0,-2 l 0.15,-0.08 c 0.954611,-0.55293 1.281234,-1.7744091 0.73,-2.7300004 l -0.22,-0.38 c -0.552929,-0.9546113 -1.774409,-1.281234 -2.73,-0.73 l -0.15,0.08 c -0.618802,0.3572656 -1.381198,0.3572656 -2,0 l -0.43,-0.25 c -0.618168,-0.356899 -0.999268,-1.0162016 -1,-1.73 V 4 c 0,-1.1045695 -0.895431,-2 -2,-2 z" />
  <circle cx="12" cy="12" r="3" />
</svg>
